# xmcd
#
# Track frame offsets:
#	150
#	33836
#	61981
#	86843
#	115333
#	168373
#	206063
#
# Disc length: 3990 seconds
#
# Revision: 1
# Processed by: cddbd v1.5.2PL0 Copyright (c) Steve Scherf et al.
# Submitted via: audiograbber 1.83.01
#
DISCID=5a0f9407
DTITLE=Grateful Dead - 69-12-20 Fillmore West, San Francisco CA
DYEAR=1900
DGENRE=
TTITLE0=Mason's Children
TTITLE1=China Cat Sunflower
TTITLE2=I Know You Rider
TTITLE3=High Time
TTITLE4=The Eleven
TTITLE5=New Speedway Boogie
TTITLE6=Turn On Your Lovelight
EXTD=
EXTT0=
EXTT1=
EXTT2=
EXTT3=
EXTT4=
EXTT5=
EXTT6=
PLAYORDER=
